<?xml version="1.0" standalone="no"?>
<!DOCTYPE svg PUBLIC "-//W3C//DTD SVG 20010904//EN"
 "http://www.w3.org/TR/2001/REC-SVG-20010904/DTD/svg10.dtd">
<svg version="1.0" xmlns="http://www.w3.org/2000/svg"
 width="256.000000pt" height="256.000000pt" viewBox="0 0 256.000000 256.000000"
 preserveAspectRatio="xMidYMid meet">
<metadata>
Created by potrace 1.14, written by Peter Selinger 2001-2017
</metadata>
<g transform="translate(0.000000,256.000000) scale(0.100000,-0.100000)"
fill="#000000" stroke="none">
<path d="M0 1655 l0 -904 38 -11 c20 -6 69 -14 108 -17 l71 -6 18 79 c69 320
189 711 306 1002 98 242 267 564 375 714 l34 48 -475 0 -475 0 0 -905z"/>
<path d="M1077 2493 c-287 -358 -517 -868 -672 -1493 -59 -239 -60 -240 -42
-240 36 0 164 77 227 136 l67 64 7 117 c9 156 22 253 52 403 78 393 286 789
476 911 65 42 148 47 195 13 93 -68 76 -295 -43 -587 -76 -186 -200 -405 -411
-725 l-114 -173 16 -48 c20 -60 74 -125 128 -153 33 -16 53 -20 107 -16 120 9
253 98 381 255 245 300 417 686 473 1065 19 124 21 369 5 469 l-12 69 -393 0
-393 0 -54 -67z"/>
<path d="M2143 2546 c32 -83 33 -529 2 -726 -67 -427 -238 -802 -474 -1041
-268 -270 -576 -359 -784 -227 -58 37 -133 119 -160 175 -12 24 -23 43 -26 43
-4 -1 -26 -28 -51 -61 -61 -83 -158 -171 -256 -235 -79 -52 -81 -55 -88 -100
-18 -132 4 -287 49 -351 l16 -23 318 0 318 0 156 104 c86 57 217 150 292 206
76 56 143 104 151 107 21 8 42 -14 50 -50 11 -53 41 -103 84 -140 31 -26 41
-41 38 -59 -3 -20 -10 -24 -68 -30 -83 -9 -203 -47 -305 -97 l-80 -39 618 -1
617 -1 0 1280 0 1280 -211 0 c-177 0 -210 -2 -206 -14z m-1 -2123 c57 -57 41
-152 -32 -191 -41 -21 -108 -9 -144 27 -27 27 -31 39 -31 82 0 46 4 54 39 86
35 33 42 35 88 31 38 -4 57 -12 80 -35z"/>
<path d="M1154 2130 c-150 -60 -385 -669 -384 -991 l0 -54 52 80 c251 392 411
721 425 876 5 48 2 60 -16 78 -22 22 -42 25 -77 11z"/>
<path d="M0 185 l0 -185 80 0 c44 0 80 3 80 8 0 4 -5 25 -10 47 -11 45 -15
263 -5 295 6 19 2 20 -69 20 l-76 0 0 -185z"/>
</g>
</svg>
